<svg width="18" height="18" viewBox="0 0 18 18" fill="none" xmlns="http://www.w3.org/2000/svg">
<g clip-path="url(#clip0_5312_34598)">
<path fill-rule="evenodd" clip-rule="evenodd" d="M16.1956 2.75907L16.2903 3.33187C16.365 3.86472 16.3996 4.40243 16.3938 4.94047C16.3932 6.12947 16.2498 7.31404 15.9666 8.46882C15.5837 10.0377 14.9166 11.5231 13.9986 12.8517C12.9378 14.3775 11.4039 15.8782 9.16809 17.084L8.89454 17.2314L8.62104 17.084C6.38521 15.8782 4.85197 14.3775 3.7905 12.8517C2.87248 11.5231 2.20549 10.0377 1.82253 8.46882C1.53943 7.31427 1.39599 6.12987 1.39531 4.9411C1.38953 4.40306 1.42413 3.86535 1.49882 3.33249L1.59355 2.7597C1.60163 2.71299 1.6004 2.66513 1.58991 2.6189C1.57942 2.57267 1.55988 2.52897 1.53243 2.49032C1.50497 2.45167 1.47014 2.41884 1.42994 2.39372C1.38974 2.36859 1.34496 2.35167 1.29819 2.34393C1.25142 2.33619 1.20359 2.33778 1.15743 2.34862C1.11128 2.35945 1.06773 2.37931 1.02929 2.40706C0.990851 2.4348 0.95828 2.46987 0.933456 2.51026C0.908632 2.55065 0.892045 2.59555 0.884652 2.64238L0.789924 3.21517C0.708444 3.78677 0.670485 4.36374 0.676375 4.9411C0.676826 6.18843 0.827213 7.43117 1.1243 8.64262C1.5287 10.297 2.23269 11.8632 3.20143 13.2639C4.32124 14.8756 5.94543 16.4604 8.2829 17.7182L8.72705 17.9573C8.7794 17.9856 8.83792 18.0004 8.89738 18.0004C8.95684 18.0004 9.0154 17.9856 9.06771 17.9573L9.51123 17.7182C11.8462 16.4597 13.471 14.8756 14.5927 13.2639C15.561 11.8633 16.2645 10.2973 16.6686 8.64325C16.9657 7.4318 17.1161 6.18906 17.1165 4.94173C17.1224 4.36437 17.0844 3.7874 17.003 3.2158L16.9082 2.64301C16.9008 2.59618 16.8842 2.55128 16.8594 2.51089C16.8346 2.4705 16.802 2.43542 16.7636 2.40768C16.7252 2.37994 16.6816 2.36008 16.6354 2.34925C16.5893 2.33841 16.5415 2.33682 16.4947 2.34456C16.4479 2.3523 16.4031 2.36922 16.3629 2.39434C16.3227 2.41947 16.2879 2.4523 16.2605 2.49095C16.233 2.5296 16.2135 2.5733 16.203 2.61953C16.1925 2.66576 16.1913 2.71361 16.1994 2.76033L16.1956 2.75907Z" fill="white"/>
<path fill-rule="evenodd" clip-rule="evenodd" d="M3.55635 2.36921L8.8952 0.73804L14.3532 2.40434C14.4446 2.43166 14.5431 2.42167 14.6271 2.37655C14.7111 2.33143 14.7739 2.25487 14.8016 2.16361C14.8293 2.07235 14.8197 1.97383 14.775 1.88961C14.7302 1.80539 14.6539 1.74233 14.5628 1.71423L8.99995 0.0159365C8.93171 -0.00498664 8.85869 -0.00498664 8.79041 0.0159365L3.34618 1.67784C3.30068 1.69145 3.25832 1.7139 3.22153 1.74392C3.18473 1.77393 3.15423 1.81092 3.13176 1.85276C3.1093 1.89459 3.09533 1.94046 3.09063 1.98771C3.08594 2.03496 3.09063 2.08268 3.10442 2.12812C3.11822 2.17356 3.14085 2.21582 3.17103 2.25249C3.2012 2.28916 3.23832 2.3195 3.28025 2.34179C3.32218 2.36407 3.3681 2.37785 3.41537 2.38234C3.46265 2.38683 3.51034 2.38194 3.55572 2.36795L3.55635 2.36921Z" fill="white"/>
<path fill-rule="evenodd" clip-rule="evenodd" d="M0.920351 2.86508L8.57444 17.8042C8.60429 17.8626 8.64957 17.9117 8.70534 17.9461C8.76111 17.9806 8.82526 17.9991 8.89084 17.9997C8.95638 18.0003 9.02084 17.9829 9.07725 17.9494C9.1336 17.9159 9.17974 17.8677 9.21062 17.8098L13.8784 9.07986L13.8852 9.06609L16.8729 2.85504C16.9134 2.76933 16.9184 2.67109 16.8868 2.5817C16.8553 2.4923 16.7898 2.41896 16.7044 2.37763C16.6191 2.33629 16.521 2.3303 16.4313 2.36096C16.3415 2.39162 16.2676 2.45645 16.2254 2.54135L13.2428 8.74735L8.90507 16.8656L1.55965 2.53633C1.53848 2.49379 1.50909 2.45586 1.47315 2.42476C1.43722 2.39366 1.39548 2.37 1.35033 2.35515C1.30519 2.3403 1.25755 2.33455 1.21017 2.33824C1.1628 2.34194 1.11662 2.355 1.07433 2.37666C1.03203 2.39833 0.994455 2.42817 0.963776 2.46447C0.933098 2.50076 0.909927 2.54278 0.895605 2.58809C0.881284 2.6334 0.876096 2.6811 0.880344 2.72844C0.884592 2.77577 0.89819 2.82178 0.920351 2.86382V2.86508Z" fill="white"/>
<path fill-rule="evenodd" clip-rule="evenodd" d="M4.58378 9.5174H13.0953C13.1905 9.5174 13.2819 9.47959 13.3493 9.4122C13.4166 9.34486 13.4545 9.25353 13.4545 9.15824C13.4545 9.06299 13.4166 8.97166 13.3493 8.90427C13.2819 8.83693 13.1905 8.79907 13.0953 8.79907H4.58378C4.48852 8.79907 4.39717 8.83693 4.32981 8.90427C4.26245 8.97166 4.22461 9.06299 4.22461 9.15824C4.22461 9.25353 4.26245 9.34486 4.32981 9.4122C4.39717 9.47959 4.48852 9.5174 4.58378 9.5174Z" fill="white"/>
</g>
<defs>
<clipPath id="clip0_5312_34598">
<rect width="18" height="18" fill="white" transform="translate(0 0.000244141)"/>
</clipPath>
</defs>
</svg>
