<svg width="20" height="20" viewBox="0 0 20 20" fill="none" xmlns="http://www.w3.org/2000/svg">
    <path d="M8.42973 10.5291C9.39253 11.0848 9.87391 11.3626 10.4026 11.3631C10.9313 11.3636 11.4132 11.0866 12.377 10.5326L18.5205 7.00108C18.7978 6.84166 18.9688 6.54616 18.9688 6.22625C18.9688 5.90634 18.7978 5.61083 18.5205 5.45142L12.3747 1.91865C11.412 1.36524 10.9306 1.08854 10.4025 1.08875C9.87428 1.08895 9.39314 1.36603 8.43084 1.92019L3.14754 4.96268C3.10838 4.98523 3.08881 4.9965 3.07055 5.00717C1.26582 6.06366 0.150802 7.99247 0.135893 10.0836C0.135742 10.1048 0.135742 10.1274 0.135742 10.1726C0.135742 10.2177 0.135742 10.2402 0.135893 10.2614C0.150769 12.3502 1.2633 14.2772 3.06482 15.3345C3.08302 15.3452 3.10256 15.3565 3.14167 15.379L6.45111 17.2898C8.37951 18.4032 9.3437 18.9599 10.4026 18.9603C11.4614 18.9606 12.426 18.4046 14.3551 17.2925L17.8487 15.2785C18.8147 14.7217 19.2976 14.4433 19.5628 13.9842C19.828 13.5252 19.828 12.9678 19.828 11.8528V9.69886C19.828 9.38954 19.6605 9.1045 19.3903 8.95397C19.1288 8.80834 18.8101 8.8105 18.5506 8.95966L11.387 13.0775C10.9063 13.3538 10.666 13.4919 10.4023 13.492C10.1386 13.4921 9.89819 13.3541 9.41739 13.0781L4.5689 10.295C4.32604 10.1556 4.20459 10.0858 4.10705 10.0733C3.88468 10.0446 3.67087 10.1691 3.58616 10.3767C3.54902 10.4678 3.54976 10.6078 3.55127 10.8878C3.55238 11.094 3.55293 11.1971 3.57219 11.2919C3.61536 11.5042 3.72705 11.6965 3.89016 11.8391C3.96299 11.9028 4.05225 11.9544 4.23081 12.0574L9.41465 15.0493C9.89671 15.3275 10.1377 15.4666 10.4024 15.4667C10.6671 15.4668 10.9082 15.3278 11.3903 15.0499L17.7442 11.3873C17.9089 11.2923 17.9913 11.2449 18.053 11.2805C18.1147 11.3162 18.1147 11.4113 18.1147 11.6014V12.5783C18.1147 12.8571 18.1147 12.9965 18.0484 13.1112C17.9821 13.226 17.8614 13.2956 17.6199 13.4348L12.3792 16.4557C11.4144 17.0119 10.932 17.2899 10.4025 17.2897C9.87296 17.2895 9.39081 17.011 8.42653 16.4539L3.52342 13.6216C3.50785 13.6126 3.50007 13.6081 3.49281 13.6038C2.46475 13.0031 1.8304 11.9041 1.82445 10.7134C1.82441 10.705 1.82441 10.696 1.82441 10.678V9.7812C1.82441 9.12388 2.17449 8.51634 2.74318 8.18671C3.2457 7.89542 3.86554 7.89483 4.36859 8.1852L8.42973 10.5291Z" fill="#BFBFBF"/>
</svg>
