<svg width="20" height="20" viewBox="0 0 20 20" fill="none" xmlns="http://www.w3.org/2000/svg">
<path fill-rule="evenodd" clip-rule="evenodd" d="M1.3749 9.13525C6.74359 6.79619 10.3236 5.25414 12.1148 4.5091C17.2292 2.38186 18.2919 2.01233 18.9846 2.00013C19.1369 1.99745 19.4776 2.0352 19.6982 2.21424C19.8845 2.36542 19.9358 2.56964 19.9603 2.71298C19.9848 2.85631 20.0154 3.18283 19.9911 3.43796C19.714 6.35 18.5147 13.4167 17.9046 16.6783C17.6465 18.0584 17.1382 18.5211 16.6461 18.5664C15.5766 18.6648 14.7645 17.8596 13.7287 17.1806C12.1078 16.1181 11.1921 15.4567 9.61879 14.4199C7.80053 13.2217 8.97923 12.5631 10.0154 11.4869C10.2866 11.2052 14.9987 6.91921 15.0899 6.5304C15.1013 6.48177 15.1119 6.30051 15.0042 6.2048C14.8965 6.10909 14.7376 6.14182 14.6229 6.16785C14.4604 6.20475 11.871 7.91622 6.85486 11.3023C6.11988 11.8069 5.45416 12.0528 4.8577 12.04C4.20015 12.0258 2.93528 11.6682 1.99498 11.3625C0.84166 10.9876 -0.074973 10.7894 0.00484519 10.1527C0.0464194 9.82109 0.503103 9.48193 1.3749 9.13525Z" fill="#BFBFBF"/>
</svg>
