<svg width="86" height="24" viewBox="0 0 86 24" fill="none" xmlns="http://www.w3.org/2000/svg">
<g clip-path="url(#clip0_255_1031)">
<path d="M0.55 2C0.55 1.19919 1.19919 0.55 2 0.55H35.45V23.45H2C1.19919 23.45 0.55 22.8008 0.55 22V2Z" stroke="white" stroke-width="1.1"/>
<g clip-path="url(#clip1_255_1031)">
<path d="M14.5461 15.5963C13.9672 15.8804 13.3638 16.0856 12.7335 16.2118C12.1043 16.3379 11.4624 16.4005 10.8076 16.4005C10.1107 16.4005 9.46994 16.2984 8.88283 16.0933C8.29572 15.8881 7.78798 15.5952 7.36078 15.2123C6.93241 14.8294 6.59976 14.3664 6.36048 13.8222C6.1212 13.2781 6.00098 12.6714 6.00098 12.001C6.00098 11.3307 6.12003 10.724 6.35931 10.1798C6.59859 9.63562 6.93241 9.17264 7.35961 8.78974C7.78681 8.40685 8.29455 8.11392 8.88166 7.90876C9.46877 7.70359 10.1107 7.60156 10.8064 7.60156C11.5021 7.60156 12.1755 7.68275 12.7755 7.84403C13.3754 8.0053 13.9018 8.28397 14.3547 8.67784L12.9704 10.0975C12.702 9.83749 12.3996 9.64001 12.0647 9.50616C11.7285 9.37231 11.3095 9.30539 10.8064 9.30539C10.3874 9.30539 10.0069 9.37231 9.6672 9.50616C9.32754 9.64001 9.03573 9.82762 8.79295 10.0679C8.55017 10.3082 8.36342 10.5945 8.23269 10.9258C8.10196 11.2572 8.03776 11.6159 8.03776 12.0021C8.03776 12.3883 8.10313 12.7569 8.23269 13.0839C8.36225 13.4108 8.549 13.695 8.79295 13.9352C9.03573 14.1755 9.32754 14.3631 9.6672 14.497C10.0069 14.6308 10.3862 14.6977 10.8064 14.6977C11.2266 14.6977 11.6036 14.6528 11.9141 14.5617C12.2246 14.4706 12.472 14.3785 12.6564 14.2841V12.9237H11.0585V11.221H14.545V15.5974L14.5461 15.5963Z" fill="white"/>
<path d="M16.2441 7.81274H18.2074V16.1871H16.2441V7.81274Z" fill="white"/>
<path d="M19.9941 7.81274H22.9635L25.0143 13.2775H25.04L27.1036 7.81274H30.0614V16.1871H28.0981V9.76452H28.0736L25.7333 16.1871H24.2358L21.9831 9.76452H21.9586V16.1871H19.9953V7.81274H19.9941Z" fill="white"/>
</g>
<mask id="path-5-inside-1_255_1031" fill="white">
<path fill-rule="evenodd" clip-rule="evenodd" d="M36 0H84C85.1046 0 86 0.895431 86 2V22C86 23.1046 85.1046 24 84 24H36V0ZM48.1917 9.85614C48.0318 9.66634 47.8158 9.52701 47.5439 9.43595C47.2707 9.34489 47.0128 9.2999 46.77 9.2999C46.6276 9.2999 46.4805 9.31526 46.33 9.34708C46.1794 9.3789 46.0358 9.42827 45.9016 9.49519C45.7674 9.56212 45.6576 9.65098 45.5748 9.76179C45.4907 9.8726 45.4487 10.0064 45.4487 10.1644C45.4487 10.4168 45.5491 10.6099 45.751 10.7437C45.9529 10.8776 46.2062 10.9917 46.512 11.0871C46.8179 11.1815 47.1482 11.2769 47.4995 11.3713C47.852 11.4656 48.1812 11.6006 48.487 11.7739C48.7928 11.9473 49.0472 12.1798 49.248 12.4717C49.4488 12.7635 49.5503 13.1541 49.5503 13.6423C49.5503 14.1305 49.4581 14.5134 49.2737 14.8601C49.0892 15.2068 48.8395 15.4953 48.5255 15.7235C48.2103 15.9528 47.8462 16.1218 47.4306 16.2326C47.0151 16.3434 46.5774 16.3983 46.1152 16.3983C45.5363 16.3983 44.9993 16.316 44.5044 16.1503C44.0095 15.9847 43.5473 15.717 43.1201 15.3461L44.5173 13.9034C44.718 14.1558 44.9725 14.351 45.2783 14.4893C45.5841 14.6275 45.9016 14.6966 46.2284 14.6966C46.3883 14.6966 46.5494 14.6791 46.7128 14.644C46.8762 14.6089 47.0233 14.5551 47.1528 14.4838C47.2824 14.4125 47.3875 14.3225 47.468 14.2117C47.5474 14.1009 47.5882 13.9714 47.5882 13.8211C47.5882 13.5688 47.4855 13.3702 47.2801 13.2243C47.0746 13.0784 46.8167 12.9544 46.5062 12.8513C46.1957 12.7493 45.8596 12.6461 45.5001 12.5441C45.1394 12.4421 44.8032 12.3038 44.4939 12.1305C44.1834 11.9571 43.9255 11.7278 43.7201 11.4448C43.5146 11.1606 43.4119 10.7865 43.4119 10.3213C43.4119 9.85614 43.5065 9.47764 43.6956 9.13863C43.8846 8.79962 44.1356 8.51546 44.4507 8.28726C44.7659 8.05906 45.1277 7.88681 45.5397 7.77271C45.9506 7.65861 46.3743 7.60156 46.8108 7.60156C47.3139 7.60156 47.8006 7.66849 48.271 7.80234C48.7414 7.93618 49.1639 8.16109 49.5421 8.47706L48.1952 9.86053L48.1917 9.85614ZM52.219 7.8127H50.0795L52.7209 16.187H54.4075L56.3708 10.3909H56.3965L58.3597 16.187H60.1094L62.7146 7.8127H60.7256L59.2281 13.3246H59.2024L57.3524 7.8127H55.528L53.6652 13.1831H53.6407L52.219 7.8127ZM66.2127 7.8127H67.8363L71.7127 16.187H69.4973L68.7293 14.413H65.2685L64.5261 16.187H62.3621L66.2127 7.8127ZM66.9679 10.2494L65.8859 12.8518H68.0628L66.9679 10.2494ZM75.9147 7.8125H72.6057H72.6045V16.1879H74.5677V12.9229H76.0023C76.4715 12.9229 76.908 12.8812 77.3107 12.7989C77.7134 12.7155 78.0612 12.5762 78.3554 12.3787C78.6495 12.1823 78.8794 11.9179 79.0475 11.5866C79.2156 11.2553 79.2996 10.8537 79.2996 10.3567C79.2996 9.85973 79.2086 9.44721 79.0288 9.12027C78.8491 8.79223 78.6051 8.53221 78.2993 8.33912C77.9923 8.14602 77.634 8.00998 77.2232 7.93099C76.8123 7.852 76.3758 7.8125 75.9147 7.8125ZM75.8774 11.3606H74.5701V9.3737H75.5762C75.7606 9.3737 75.9544 9.38358 76.1552 9.40332C76.3571 9.42307 76.5392 9.46805 76.7026 9.53937C76.866 9.61068 77.0002 9.71052 77.1053 9.84107C77.2103 9.97163 77.2628 10.1428 77.2628 10.3556C77.2628 10.552 77.2232 10.7166 77.1426 10.846C77.0621 10.9755 76.957 11.0786 76.8275 11.1532C76.6979 11.2289 76.5508 11.2816 76.3874 11.3134C76.2229 11.3452 76.0536 11.3606 75.8774 11.3606Z"/>
</mask>
<path fill-rule="evenodd" clip-rule="evenodd" d="M36 0H84C85.1046 0 86 0.895431 86 2V22C86 23.1046 85.1046 24 84 24H36V0ZM48.1917 9.85614C48.0318 9.66634 47.8158 9.52701 47.5439 9.43595C47.2707 9.34489 47.0128 9.2999 46.77 9.2999C46.6276 9.2999 46.4805 9.31526 46.33 9.34708C46.1794 9.3789 46.0358 9.42827 45.9016 9.49519C45.7674 9.56212 45.6576 9.65098 45.5748 9.76179C45.4907 9.8726 45.4487 10.0064 45.4487 10.1644C45.4487 10.4168 45.5491 10.6099 45.751 10.7437C45.9529 10.8776 46.2062 10.9917 46.512 11.0871C46.8179 11.1815 47.1482 11.2769 47.4995 11.3713C47.852 11.4656 48.1812 11.6006 48.487 11.7739C48.7928 11.9473 49.0472 12.1798 49.248 12.4717C49.4488 12.7635 49.5503 13.1541 49.5503 13.6423C49.5503 14.1305 49.4581 14.5134 49.2737 14.8601C49.0892 15.2068 48.8395 15.4953 48.5255 15.7235C48.2103 15.9528 47.8462 16.1218 47.4306 16.2326C47.0151 16.3434 46.5774 16.3983 46.1152 16.3983C45.5363 16.3983 44.9993 16.316 44.5044 16.1503C44.0095 15.9847 43.5473 15.717 43.1201 15.3461L44.5173 13.9034C44.718 14.1558 44.9725 14.351 45.2783 14.4893C45.5841 14.6275 45.9016 14.6966 46.2284 14.6966C46.3883 14.6966 46.5494 14.6791 46.7128 14.644C46.8762 14.6089 47.0233 14.5551 47.1528 14.4838C47.2824 14.4125 47.3875 14.3225 47.468 14.2117C47.5474 14.1009 47.5882 13.9714 47.5882 13.8211C47.5882 13.5688 47.4855 13.3702 47.2801 13.2243C47.0746 13.0784 46.8167 12.9544 46.5062 12.8513C46.1957 12.7493 45.8596 12.6461 45.5001 12.5441C45.1394 12.4421 44.8032 12.3038 44.4939 12.1305C44.1834 11.9571 43.9255 11.7278 43.7201 11.4448C43.5146 11.1606 43.4119 10.7865 43.4119 10.3213C43.4119 9.85614 43.5065 9.47764 43.6956 9.13863C43.8846 8.79962 44.1356 8.51546 44.4507 8.28726C44.7659 8.05906 45.1277 7.88681 45.5397 7.77271C45.9506 7.65861 46.3743 7.60156 46.8108 7.60156C47.3139 7.60156 47.8006 7.66849 48.271 7.80234C48.7414 7.93618 49.1639 8.16109 49.5421 8.47706L48.1952 9.86053L48.1917 9.85614ZM52.219 7.8127H50.0795L52.7209 16.187H54.4075L56.3708 10.3909H56.3965L58.3597 16.187H60.1094L62.7146 7.8127H60.7256L59.2281 13.3246H59.2024L57.3524 7.8127H55.528L53.6652 13.1831H53.6407L52.219 7.8127ZM66.2127 7.8127H67.8363L71.7127 16.187H69.4973L68.7293 14.413H65.2685L64.5261 16.187H62.3621L66.2127 7.8127ZM66.9679 10.2494L65.8859 12.8518H68.0628L66.9679 10.2494ZM75.9147 7.8125H72.6057H72.6045V16.1879H74.5677V12.9229H76.0023C76.4715 12.9229 76.908 12.8812 77.3107 12.7989C77.7134 12.7155 78.0612 12.5762 78.3554 12.3787C78.6495 12.1823 78.8794 11.9179 79.0475 11.5866C79.2156 11.2553 79.2996 10.8537 79.2996 10.3567C79.2996 9.85973 79.2086 9.44721 79.0288 9.12027C78.8491 8.79223 78.6051 8.53221 78.2993 8.33912C77.9923 8.14602 77.634 8.00998 77.2232 7.93099C76.8123 7.852 76.3758 7.8125 75.9147 7.8125ZM75.8774 11.3606H74.5701V9.3737H75.5762C75.7606 9.3737 75.9544 9.38358 76.1552 9.40332C76.3571 9.42307 76.5392 9.46805 76.7026 9.53937C76.866 9.61068 77.0002 9.71052 77.1053 9.84107C77.2103 9.97163 77.2628 10.1428 77.2628 10.3556C77.2628 10.552 77.2232 10.7166 77.1426 10.846C77.0621 10.9755 76.957 11.0786 76.8275 11.1532C76.6979 11.2289 76.5508 11.2816 76.3874 11.3134C76.2229 11.3452 76.0536 11.3606 75.8774 11.3606Z" fill="white"/>
<path d="M36 0V-0.916667H35.0833V0H36ZM36 24H35.0833V24.9167H36V24ZM47.5439 9.43595L47.8349 8.56671L47.8338 8.56634L47.5439 9.43595ZM48.1917 9.85614L48.9083 9.28451L48.9006 9.27491L48.8927 9.26552L48.1917 9.85614ZM46.33 9.34708L46.1404 8.45022H46.1404L46.33 9.34708ZM45.5748 9.76179L46.3052 10.3157L46.3088 10.3108L45.5748 9.76179ZM45.751 10.7437L46.2575 9.97966L46.2575 9.97966L45.751 10.7437ZM46.512 11.0871L46.2389 11.9622L46.2418 11.963L46.512 11.0871ZM47.4995 11.3713L47.2617 12.2566L47.2625 12.2568L47.4995 11.3713ZM48.487 11.7739L48.0349 12.5714L48.0349 12.5714L48.487 11.7739ZM49.2737 14.8601L48.4644 14.4296L49.2737 14.8601ZM48.5255 15.7235L47.9866 14.982L47.9862 14.9823L48.5255 15.7235ZM44.5044 16.1503L44.2135 17.0196L44.5044 16.1503ZM43.1201 15.3461L42.4616 14.7084L41.7882 15.4038L42.5192 16.0384L43.1201 15.3461ZM44.5173 13.9034L45.2346 13.3327L44.5848 12.516L43.8588 13.2657L44.5173 13.9034ZM46.7128 14.644L46.9053 15.5402L46.9054 15.5402L46.7128 14.644ZM47.468 14.2117L48.2095 14.7507L48.2132 14.7455L47.468 14.2117ZM47.2801 13.2243L46.7492 13.9716L46.7492 13.9716L47.2801 13.2243ZM46.5062 12.8513L46.7952 11.9813L46.7924 11.9804L46.5062 12.8513ZM45.5001 12.5441L45.7503 11.6623L45.7496 11.662L45.5001 12.5441ZM44.4939 12.1305L44.9421 11.3308L44.9408 11.3301L44.4939 12.1305ZM43.7201 11.4448L42.9772 11.9818L42.9782 11.9832L43.7201 11.4448ZM44.4507 8.28726L44.9884 9.02972L44.9884 9.02972L44.4507 8.28726ZM45.5397 7.77271L45.7844 8.65613L45.785 8.65595L45.5397 7.77271ZM48.271 7.80234L48.0202 8.684H48.0202L48.271 7.80234ZM49.5421 8.47706L50.1989 9.11652L50.8889 8.40781L50.1299 7.77361L49.5421 8.47706ZM48.1952 9.86053L47.4786 10.4322L48.1268 11.2448L48.8519 10.5L48.1952 9.86053ZM50.0795 7.8127V6.89603H48.8292L49.2053 8.08844L50.0795 7.8127ZM52.219 7.8127L53.1051 7.57811L52.9246 6.89603H52.219V7.8127ZM52.7209 16.187L51.8467 16.4628L52.0488 17.1037H52.7209V16.187ZM54.4075 16.187V17.1037H55.0648L55.2757 16.4811L54.4075 16.187ZM56.3708 10.3909V9.47426H55.7134L55.5026 10.0968L56.3708 10.3909ZM56.3965 10.3909L57.2647 10.0968L57.0538 9.47426H56.3965V10.3909ZM58.3597 16.187L57.4915 16.4811L57.7024 17.1037H58.3597V16.187ZM60.1094 16.187V17.1037H60.7842L60.9846 16.4593L60.1094 16.187ZM62.7146 7.8127L63.5899 8.085L63.9598 6.89603H62.7146V7.8127ZM60.7256 7.8127V6.89603H60.0248L59.841 7.57236L60.7256 7.8127ZM59.2281 13.3246V14.2413H59.929L60.1127 13.565L59.2281 13.3246ZM59.2024 13.3246L58.3334 13.6163L58.5432 14.2413H59.2024V13.3246ZM57.3524 7.8127L58.2214 7.52102L58.0117 6.89603H57.3524V7.8127ZM55.528 7.8127V6.89603H54.8758L54.662 7.51228L55.528 7.8127ZM53.6652 13.1831V14.0998H54.3175L54.5312 13.4835L53.6652 13.1831ZM53.6407 13.1831L52.7545 13.4177L52.9351 14.0998H53.6407V13.1831ZM67.8363 7.8127L68.6682 7.42764L68.4221 6.89603H67.8363V7.8127ZM66.2127 7.8127V6.89603H65.6253L65.3799 7.42974L66.2127 7.8127ZM71.7127 16.187V17.1037H73.1471L72.5445 15.802L71.7127 16.187ZM69.4973 16.187L68.6561 16.5512L68.8952 17.1037H69.4973V16.187ZM68.7293 14.413L69.5705 14.0488L69.3313 13.4963H68.7293V14.413ZM65.2685 14.413V13.4963H64.6584L64.4229 14.0591L65.2685 14.413ZM64.5261 16.187V17.1037H65.1362L65.3717 16.5409L64.5261 16.187ZM62.3621 16.187L61.5293 15.8041L60.9317 17.1037H62.3621V16.187ZM65.8859 12.8518L65.0395 12.4998L64.5121 13.7684H65.8859V12.8518ZM66.9679 10.2494L67.8129 9.89392L66.9629 7.87372L66.1215 9.89748L66.9679 10.2494ZM68.0628 12.8518V13.7684H69.4429L68.9077 12.4963L68.0628 12.8518ZM72.6045 7.8125V6.89583H71.6878V7.8125H72.6045ZM72.6045 16.1879H71.6878V17.1046H72.6045V16.1879ZM74.5677 16.1879V17.1046H75.4844V16.1879H74.5677ZM74.5677 12.9229V12.0062H73.6511V12.9229H74.5677ZM77.3107 12.7989L77.4942 13.697L77.4966 13.6965L77.3107 12.7989ZM78.3554 12.3787L77.8463 11.6164L77.8444 11.6177L78.3554 12.3787ZM79.0475 11.5866L79.865 12.0013L79.865 12.0013L79.0475 11.5866ZM79.0288 9.12027L78.2249 9.56077L78.2256 9.5619L79.0288 9.12027ZM78.2993 8.33912L78.7887 7.56403L78.7874 7.56319L78.2993 8.33912ZM77.2232 7.93099L77.3962 7.03081L77.2232 7.93099ZM74.5701 11.3606H73.6534V12.2773H74.5701V11.3606ZM74.5701 9.3737V8.45704H73.6534V9.3737H74.5701ZM76.1552 9.40332L76.0654 10.3156L76.0659 10.3156L76.1552 9.40332ZM77.1053 9.84107L76.3911 10.4157L76.3911 10.4157L77.1053 9.84107ZM77.1426 10.846L76.3643 10.3618L76.3643 10.3618L77.1426 10.846ZM76.8275 11.1532L76.37 10.3588L76.365 10.3618L76.8275 11.1532ZM76.3874 11.3134L76.5614 12.2134L76.5626 12.2132L76.3874 11.3134ZM84 -0.916667H36V0.916667H84V-0.916667ZM86.9167 2C86.9167 0.389169 85.6108 -0.916667 84 -0.916667V0.916667C84.5983 0.916667 85.0833 1.40169 85.0833 2H86.9167ZM86.9167 22V2H85.0833V22H86.9167ZM84 24.9167C85.6108 24.9167 86.9167 23.6108 86.9167 22H85.0833C85.0833 22.5983 84.5983 23.0833 84 23.0833V24.9167ZM36 24.9167H84V23.0833H36V24.9167ZM35.0833 0V24H36.9167V0H35.0833ZM47.2528 10.3052C47.3927 10.352 47.4565 10.4063 47.4906 10.4468L48.8927 9.26552C48.607 8.92639 48.2389 8.70199 47.8349 8.56671L47.2528 10.3052ZM46.77 10.2166C46.899 10.2166 47.0587 10.2405 47.2539 10.3056L47.8338 8.56634C47.4828 8.44931 47.1265 8.38324 46.77 8.38324V10.2166ZM46.5195 10.2439C46.6101 10.2248 46.6937 10.2166 46.77 10.2166V8.38324C46.5615 8.38324 46.3509 8.40574 46.1404 8.45022L46.5195 10.2439ZM46.3106 10.3155C46.372 10.2849 46.4415 10.2604 46.5195 10.2439L46.1404 8.45022C45.9173 8.49737 45.6996 8.57162 45.4926 8.67483L46.3106 10.3155ZM46.3088 10.3108C46.304 10.3172 46.2996 10.3213 46.2977 10.3228C46.2961 10.3242 46.2994 10.3211 46.3106 10.3155L45.4926 8.67483C45.2443 8.7986 45.0182 8.97546 44.8407 9.21279L46.3088 10.3108ZM46.3654 10.1644C46.3654 10.1671 46.3649 10.1877 46.355 10.2195C46.3446 10.2525 46.3275 10.2862 46.3051 10.3157L44.8444 9.20786C44.6238 9.49877 44.532 9.8341 44.532 10.1644H46.3654ZM46.2575 9.97966C46.2712 9.98876 46.3079 10.019 46.337 10.0747C46.3651 10.1287 46.3654 10.167 46.3654 10.1644H44.532C44.532 10.7071 44.7726 11.1949 45.2446 11.5078L46.2575 9.97966ZM46.7852 10.2121C46.5365 10.1345 46.3679 10.0529 46.2575 9.97966L45.2446 11.5078C45.538 11.7023 45.876 11.8489 46.2389 11.9621L46.7852 10.2121ZM47.7373 10.486C47.3964 10.3944 47.0769 10.3021 46.7823 10.2112L46.2418 11.963C46.5588 12.0608 46.8999 12.1594 47.2617 12.2566L47.7373 10.486ZM48.939 10.9764C48.5645 10.7642 48.163 10.5999 47.7365 10.4858L47.2625 12.2568C47.541 12.3313 47.7978 12.437 48.0349 12.5714L48.939 10.9764ZM50.0032 11.9521C49.7236 11.5456 49.3653 11.2181 48.939 10.9764L48.0349 12.5714C48.2202 12.6764 48.3709 12.8141 48.4928 12.9912L50.0032 11.9521ZM50.467 13.6423C50.467 13.0349 50.3413 12.4437 50.0032 11.9521L48.4928 12.9912C48.5562 13.0834 48.6336 13.2732 48.6336 13.6423H50.467ZM50.083 15.2906C50.3481 14.7921 50.467 14.2572 50.467 13.6423H48.6336C48.6336 14.0038 48.568 14.2347 48.4644 14.4296L50.083 15.2906ZM49.0644 16.4651C49.4927 16.1538 49.8342 15.7582 50.083 15.2906L48.4644 14.4296C48.3443 14.6553 48.1863 14.8369 47.9866 14.982L49.0644 16.4651ZM47.6668 17.1183C48.1794 16.9816 48.6488 16.7675 49.0648 16.4648L47.9862 14.9823C47.7719 15.1382 47.513 15.262 47.1944 15.3469L47.6668 17.1183ZM46.1152 17.3149C46.6506 17.3149 47.1682 17.2513 47.6668 17.1183L47.1944 15.3469C46.862 15.4355 46.5042 15.4816 46.1152 15.4816V17.3149ZM44.2135 17.0196C44.8124 17.2201 45.4487 17.3149 46.1152 17.3149V15.4816C45.6238 15.4816 45.1863 15.4119 44.7954 15.2811L44.2135 17.0196ZM42.5192 16.0384C43.0304 16.4821 43.5965 16.8131 44.2135 17.0196L44.7954 15.2811C44.4225 15.1562 44.0642 14.9518 43.721 14.6539L42.5192 16.0384ZM43.8588 13.2657L42.4616 14.7084L43.7786 15.9838L45.1758 14.5411L43.8588 13.2657ZM45.6559 13.654C45.4758 13.5726 45.3401 13.4654 45.2346 13.3327L43.7999 14.4741C44.0959 14.8462 44.4691 15.1295 44.9007 15.3246L45.6559 13.654ZM46.2284 13.78C46.0349 13.78 45.8459 13.7399 45.6559 13.654L44.9007 15.3246C45.3223 15.5152 45.7683 15.6133 46.2284 15.6133V13.78ZM46.5203 13.7478C46.417 13.7699 46.3205 13.78 46.2284 13.78V15.6133C46.4561 15.6133 46.6817 15.5882 46.9053 15.5402L46.5203 13.7478ZM46.7108 13.6807C46.6678 13.7044 46.6063 13.7293 46.5202 13.7478L46.9054 15.5402C47.1461 15.4885 47.3787 15.4058 47.5949 15.2869L46.7108 13.6807ZM46.7265 13.6728C46.7288 13.6696 46.7307 13.6679 46.7305 13.6681C46.7299 13.6686 46.7244 13.6733 46.7108 13.6807L47.5949 15.2869C47.8295 15.1577 48.0415 14.9818 48.2095 14.7506L46.7265 13.6728ZM46.6715 13.8211C46.6715 13.8123 46.6729 13.7902 46.6822 13.76C46.6918 13.7293 46.7063 13.7009 46.7228 13.6779L48.2132 14.7455C48.4117 14.4683 48.5049 14.1493 48.5049 13.8211H46.6715ZM46.7492 13.9716C46.7498 13.9721 46.7425 13.9669 46.7315 13.9546C46.7202 13.942 46.7077 13.9248 46.6967 13.9035C46.6858 13.8822 46.6789 13.862 46.6752 13.8455C46.6715 13.8294 46.6715 13.8204 46.6715 13.8211H48.5049C48.5049 13.2716 48.2582 12.7947 47.8109 12.477L46.7492 13.9716ZM46.2172 13.7212C46.4669 13.8041 46.6369 13.8919 46.7492 13.9716L47.8109 12.477C47.5123 12.2649 47.1665 12.1047 46.7952 11.9814L46.2172 13.7212ZM45.2498 13.4259C45.5977 13.5247 45.9218 13.6241 46.22 13.7221L46.7924 11.9804C46.4696 11.8744 46.1215 11.7676 45.7503 11.6623L45.2498 13.4259ZM44.0458 12.9301C44.4212 13.1405 44.8245 13.3056 45.2505 13.4261L45.7496 11.662C45.4543 11.5785 45.1853 11.4671 44.9421 11.3308L44.0458 12.9301ZM42.9782 11.9832C43.2622 12.3746 43.6211 12.693 44.0471 12.9308L44.9408 11.3301C44.7458 11.2212 44.5887 11.0811 44.4619 10.9064L42.9782 11.9832ZM42.4953 10.3213C42.4953 10.9172 42.6271 11.4976 42.9772 11.9818L44.4629 10.9077C44.4021 10.8236 44.3286 10.6558 44.3286 10.3213H42.4953ZM42.895 8.6921C42.6198 9.18549 42.4953 9.72165 42.4953 10.3213H44.3286C44.3286 9.99063 44.3931 9.76979 44.4961 9.58515L42.895 8.6921ZM43.9131 7.5448C43.4884 7.85232 43.1483 8.23798 42.895 8.6921L44.4961 9.58515C44.621 9.36126 44.7828 9.1786 44.9884 9.02972L43.9131 7.5448ZM45.2951 6.88929C44.7855 7.03042 44.323 7.24802 43.9131 7.54481L44.9884 9.02972C45.2088 8.87011 45.47 8.74321 45.7844 8.65613L45.2951 6.88929ZM46.8108 6.6849C46.2934 6.6849 45.7871 6.75267 45.2945 6.88947L45.785 8.65595C46.1141 8.56456 46.4552 8.51823 46.8108 8.51823V6.6849ZM48.5219 6.92067C47.9676 6.76294 47.3963 6.6849 46.8108 6.6849V8.51823C47.2315 8.51823 47.6337 8.57404 48.0202 8.684L48.5219 6.92067ZM50.1299 7.77361C49.6547 7.37664 49.1178 7.09023 48.5219 6.92067L48.0202 8.684C48.365 8.78213 48.6732 8.94555 48.9544 9.18051L50.1299 7.77361ZM48.8519 10.5L50.1989 9.11652L48.8853 7.83761L47.5384 9.22107L48.8519 10.5ZM47.4751 10.4278L47.4786 10.4322L48.9118 9.2889L48.9083 9.28451L47.4751 10.4278ZM50.0795 8.72936H52.219V6.89603H50.0795V8.72936ZM53.5951 15.9113L50.9537 7.53695L49.2053 8.08844L51.8467 16.4628L53.5951 15.9113ZM54.4075 15.2703H52.7209V17.1037H54.4075V15.2703ZM55.5026 10.0968L53.5393 15.8929L55.2757 16.4811L57.239 10.685L55.5026 10.0968ZM56.3965 9.47426H56.3708V11.3076H56.3965V9.47426ZM59.2279 15.8929L57.2647 10.0968L55.5282 10.685L57.4915 16.4811L59.2279 15.8929ZM60.1094 15.2703H58.3597V17.1037H60.1094V15.2703ZM61.8393 7.5404L59.2341 15.9147L60.9846 16.4593L63.5899 8.085L61.8393 7.5404ZM60.7256 8.72936H62.7146V6.89603H60.7256V8.72936ZM60.1127 13.565L61.6102 8.05303L59.841 7.57236L58.3435 13.0843L60.1127 13.565ZM59.2024 14.2413H59.2281V12.408H59.2024V14.2413ZM56.4834 8.10438L58.3334 13.6163L60.0715 13.0329L58.2214 7.52102L56.4834 8.10438ZM55.528 8.72936H57.3524V6.89603H55.528V8.72936ZM54.5312 13.4835L56.3941 8.11311L54.662 7.51228L52.7991 12.8827L54.5312 13.4835ZM53.6407 14.0998H53.6652V12.2664H53.6407V14.0998ZM51.3328 8.04728L52.7545 13.4177L54.5268 12.9485L53.1051 7.57811L51.3328 8.04728ZM67.8363 6.89603H66.2127V8.72936H67.8363V6.89603ZM72.5445 15.802L68.6682 7.42764L67.0045 8.19775L70.8808 16.5721L72.5445 15.802ZM69.4973 17.1037H71.7127V15.2703H69.4973V17.1037ZM67.888 14.7772L68.6561 16.5512L70.3385 15.8228L69.5705 14.0488L67.888 14.7772ZM65.2685 15.3296H68.7293V13.4963H65.2685V15.3296ZM65.3717 16.5409L66.1141 14.7668L64.4229 14.0591L63.6805 15.8332L65.3717 16.5409ZM62.3621 17.1037H64.5261V15.2703H62.3621V17.1037ZM65.3799 7.42974L61.5293 15.8041L63.195 16.57L67.0456 8.19565L65.3799 7.42974ZM66.7323 13.2037L67.8144 10.6013L66.1215 9.89748L65.0395 12.4998L66.7323 13.2037ZM68.0628 11.9351H65.8859V13.7684H68.0628V11.9351ZM66.123 10.6049L67.2178 13.2072L68.9077 12.4963L67.8129 9.89392L66.123 10.6049ZM72.6057 8.72917H75.9147V6.89583H72.6057V8.72917ZM72.6045 8.72917H72.6057V6.89583H72.6045V8.72917ZM73.5212 16.1879V7.8125H71.6878V16.1879H73.5212ZM74.5677 15.2712H72.6045V17.1046H74.5677V15.2712ZM73.6511 12.9229V16.1879H75.4844V12.9229H73.6511ZM76.0023 12.0062H74.5677V13.8396H76.0023V12.0062ZM77.1272 11.9008C76.792 11.9693 76.4176 12.0062 76.0023 12.0062V13.8396C76.5254 13.8396 77.024 13.7931 77.4942 13.697L77.1272 11.9008ZM77.8444 11.6177C77.6643 11.7386 77.4312 11.8379 77.1248 11.9013L77.4966 13.6965C77.9956 13.5932 78.4581 13.4138 78.8663 13.1398L77.8444 11.6177ZM78.23 11.1719C78.1284 11.3722 78.001 11.5131 77.8463 11.6164L78.8644 13.1411C79.298 12.8516 79.6304 12.4637 79.865 12.0013L78.23 11.1719ZM78.383 10.3567C78.383 10.7518 78.3162 11.0021 78.23 11.1719L79.865 12.0013C80.115 11.5085 80.2163 10.9556 80.2163 10.3567H78.383ZM78.2256 9.5619C78.3109 9.71716 78.383 9.9665 78.383 10.3567H80.2163C80.2163 9.75296 80.1062 9.17726 79.8321 8.67864L78.2256 9.5619ZM77.8099 9.11421C77.9814 9.22249 78.1183 9.3662 78.2249 9.56077L79.8327 8.67977C79.5798 8.21826 79.2289 7.84193 78.7887 7.56403L77.8099 9.11421ZM77.0501 8.83117C77.3657 8.89186 77.614 8.99097 77.8113 9.11505L78.7874 7.56319C78.3707 7.30108 77.9023 7.12811 77.3962 7.03081L77.0501 8.83117ZM75.9147 8.72917C76.3236 8.72917 76.7018 8.7642 77.0501 8.83117L77.3962 7.03081C76.9228 6.93979 76.428 6.89583 75.9147 6.89583V8.72917ZM74.5701 12.2773H75.8774V10.4439H74.5701V12.2773ZM73.6534 9.3737V11.3606H75.4867V9.3737H73.6534ZM75.5762 8.45704H74.5701V10.2904H75.5762V8.45704ZM76.2449 8.49106C76.0168 8.46863 75.793 8.45704 75.5762 8.45704V10.2904C75.7282 10.2904 75.8919 10.2985 76.0654 10.3156L76.2449 8.49106ZM77.0692 8.69922C76.8054 8.58408 76.5276 8.51871 76.2444 8.49101L76.0659 10.3156C76.1865 10.3274 76.273 10.352 76.3359 10.3795L77.0692 8.69922ZM77.8195 9.26643C77.6138 9.01081 77.3562 8.82444 77.0692 8.69922L76.3359 10.3795C76.3758 10.3969 76.3867 10.4102 76.3911 10.4157L77.8195 9.26643ZM78.1795 10.3556C78.1795 9.99064 78.0872 9.59923 77.8194 9.26641L76.3911 10.4157C76.3657 10.3842 76.3525 10.3541 76.347 10.336C76.3422 10.3203 76.3462 10.3238 76.3462 10.3556H78.1795ZM77.921 11.3303C78.1162 11.0164 78.1795 10.6705 78.1795 10.3556H76.3462C76.3462 10.393 76.3423 10.4089 76.3424 10.4085C76.3428 10.4071 76.3476 10.3887 76.3643 10.3618L77.921 11.3303ZM77.2849 11.9476C77.5509 11.7944 77.7641 11.5824 77.921 11.3302L76.3643 10.3618C76.361 10.367 76.3603 10.367 76.363 10.3644C76.3642 10.3632 76.3656 10.362 76.3671 10.3609C76.3685 10.3598 76.3696 10.3591 76.37 10.3589L77.2849 11.9476ZM76.5626 12.2132C76.8111 12.1648 77.0582 12.0801 77.2899 11.9447L76.365 10.3618C76.3376 10.3778 76.2906 10.3984 76.2122 10.4136L76.5626 12.2132ZM75.8774 12.2773C76.1074 12.2773 76.3352 12.2572 76.5614 12.2134L76.2134 10.4134C76.1105 10.4333 75.9998 10.4439 75.8774 10.4439V12.2773Z" fill="white" mask="url(#path-5-inside-1_255_1031)"/>
</g>
<defs>
<clipPath id="clip0_255_1031">
<rect width="86" height="24" fill="white"/>
</clipPath>
<clipPath id="clip1_255_1031">
<rect width="24.2" height="8.8" fill="white" transform="translate(6 7.59961)"/>
</clipPath>
</defs>
</svg>
