<svg width="" height="" viewBox="0 0 16 16" fill="none" xmlns="http://www.w3.org/2000/svg">
<path d="M3.91699 2.66666C2.81233 2.66666 1.91699 3.56206 1.91699 4.66666V11.3333C1.91699 12.6667 2.58366 13.3333 3.91699 13.3333H12.083C13.4163 13.3333 14.083 12.6667 14.083 11.3333V5.99999C14.083 5.63179 13.7843 5.33332 13.4163 5.33332H12.7496V3.33332C12.7496 2.96512 12.451 2.66666 12.083 2.66666L3.91699 2.66666ZM3.91699 3.99999H11.4163V5.33332H3.91699C3.54899 5.33332 3.25033 5.03486 3.25033 4.66666C3.25033 4.29846 3.54899 3.99999 3.91699 3.99999ZM10.7496 7.99999C11.1176 7.99999 11.4163 8.29846 11.4163 8.66666C11.4163 9.03486 11.1176 9.33332 10.7496 9.33332C10.3816 9.33332 10.083 9.03486 10.083 8.66666C10.083 8.29846 10.3816 7.99999 10.7496 7.99999Z" fill="#926CFF"/>
</svg>
