<svg width="" height="" viewBox="0 0 23 22" fill="none" xmlns="http://www.w3.org/2000/svg">
<circle cx="11.5" cy="11" r="10" fill="#F3BA2F"/>
<path d="M12.8535 15.6264V17.1954L11.4798 18L10.1465 17.1954V15.6264L11.4798 16.431L12.8535 15.6264ZM5.5 10.1954L6.83333 11V13.6954L9.13636 15.0632V16.6322L5.5 14.5V10.1954ZM17.4596 10.1954V14.5L13.7828 16.6322V15.0632L16.0859 13.6954V11L17.4596 10.1954ZM13.7828 8.06322L15.1566 8.86782V10.4368L12.8535 11.8046V14.5402L11.5202 15.3448L10.1869 14.5402V11.8046L7.80303 10.4368V8.86782L9.17677 8.06322L11.4798 9.43103L13.7828 8.06322ZM7.80303 11.5632L9.13636 12.3678V13.9368L7.80303 13.1322V11.5632ZM15.1566 11.5632V13.1322L13.8232 13.9368V12.3678L15.1566 11.5632ZM6.83333 6.6954L8.20707 7.5L6.83333 8.3046V9.87356L5.5 9.06897V7.5L6.83333 6.6954ZM16.1263 6.6954L17.5 7.5V9.06897L16.1263 9.87356V8.3046L14.7929 7.5L16.1263 6.6954ZM11.4798 6.6954L12.8535 7.5L11.4798 8.3046L10.1465 7.5L11.4798 6.6954ZM11.4798 4L15.1566 6.13218L13.8232 6.93678L11.5202 5.56897L9.17677 6.93678L7.84343 6.13218L11.4798 4Z" fill="white"/>
</svg>
