<svg width="20" height="20" viewBox="0 0 20 20" fill="none" xmlns="http://www.w3.org/2000/svg">
<g clip-path="url(#clip0_1760_1621)">
<path fill-rule="evenodd" clip-rule="evenodd" d="M0 -0.331055H20V20.0023H0V-0.331055Z" fill="white"/>
<path fill-rule="evenodd" clip-rule="evenodd" d="M2.19141 6.8923L4.27208 3.77246L4.79205 4.11924L2.71138 7.23907L2.19141 6.8923ZM2.97138 7.41245L5.05203 4.29263L5.572 4.6394L3.49133 7.75922L2.97138 7.41245ZM3.75133 7.93262L5.832 4.81279L6.35195 5.15957L4.2713 8.2794L3.75133 7.93262Z" fill="black"/>
<path fill-rule="evenodd" clip-rule="evenodd" d="M13.6309 14.5212L15.7115 11.4014L16.2315 11.7481L14.1508 14.868L13.6309 14.5212ZM14.4108 15.0414L16.4915 11.9215L17.0115 12.2683L14.9308 15.3881L14.4108 15.0414ZM15.1908 15.5615L17.2715 12.4417L17.7914 12.7885L15.7108 15.9083L15.1908 15.5615Z" fill="black"/>
<path d="M14.4102 12.7881L17.01 14.522" stroke="white" stroke-width="0.416667"/>
<path fill-rule="evenodd" clip-rule="evenodd" d="M6.87109 7.75968C7.42292 6.93225 8.28084 6.35793 9.25612 6.16305C10.2314 5.96815 11.2441 6.1687 12.0716 6.72053C12.899 7.27235 13.4733 8.13028 13.6682 9.10555C13.8631 10.0808 13.6626 11.0936 13.1107 11.921L6.87109 7.75968Z" fill="#EB4E4E"/>
<path fill-rule="evenodd" clip-rule="evenodd" d="M6.87164 7.75928C6.31981 8.5867 6.11929 9.59945 6.31416 10.5747C6.50904 11.55 7.08339 12.4079 7.91081 12.9598C8.73824 13.5116 9.75099 13.7121 10.7263 13.5173C11.7016 13.3224 12.5595 12.748 13.1113 11.9206C13.3872 11.5069 13.4875 11.0005 13.39 10.5129C13.2926 10.0252 13.0054 9.59628 12.5917 9.32035C12.178 9.04445 11.6716 8.94418 11.184 9.04163C10.6963 9.13905 10.2674 9.42623 9.99146 9.83993L6.87164 7.75928Z" fill="#1F74DF"/>
<path d="M9.99006 9.83984C10.5646 8.97832 10.332 7.81417 9.47046 7.23959C8.60896 6.66504 7.44478 6.89767 6.87021 7.75917C6.29566 8.62069 6.52828 9.78487 7.38981 10.3594C8.25131 10.934 9.41548 10.7014 9.99006 9.83984Z" fill="#EB4E4E"/>
<path fill-rule="evenodd" clip-rule="evenodd" d="M4.28111 15.9098L2.20044 12.79L2.72041 12.4432L4.80108 15.563L4.28111 15.9098ZM5.06106 15.3896L2.98041 12.2698L3.50036 11.923L5.58103 15.0428L5.06106 15.3896ZM5.84103 14.8694L3.76036 11.7496L4.28033 11.4028L6.36098 14.5227L5.84103 14.8694Z" fill="black"/>
<path fill-rule="evenodd" clip-rule="evenodd" d="M15.7206 8.28085L13.6399 5.16103L14.1599 4.81426L16.2405 7.93408L15.7206 8.28085ZM16.5005 7.7607L14.4199 4.64087L14.9398 4.29409L17.0205 7.41393L16.5005 7.7607ZM17.2805 7.24053L15.1998 4.1207L15.7198 3.77393L17.8005 6.89375L17.2805 7.24053Z" fill="black"/>
<path d="M3.89062 13.9165L4.67058 13.3964M14.42 6.89427L15.33 6.28742M16.1099 5.76725L16.8899 5.24707" stroke="white" stroke-width="0.416667"/>
</g>
<rect x="0.1" y="0.1" width="19.8" height="19.8" rx="9.9" stroke="#A5A5A5" stroke-width="0.2"/>
<defs>
<clipPath id="clip0_1760_1621">
<rect width="20" height="20" rx="10" fill="white"/>
</clipPath>
</defs>
</svg>
