<svg width="20" height="20" viewBox="0 0 20 20" fill="none" xmlns="http://www.w3.org/2000/svg">
    <path d="M10.0002 20.0005C15.5232 20.0005 20.0005 15.5232 20.0005 10.0002C20.0005 4.47725 15.5232 0 10.0002 0C4.47725 0 0 4.47725 0 10.0002C0 15.5232 4.47725 20.0005 10.0002 20.0005Z" fill="black"/>
    <path d="M6.30266 15.2152L4.21225 8.00095H6.30266L7.30281 12.4411L9.07785 5.97714H10.8799L12.5739 12.4501H12.6505L14.6909 4.09619H16.7814L13.6506 15.2152H11.781L10.0149 9.12116H9.94285L8.17682 15.2152H6.30266Z" fill="#BFF009"/>
    <path d="M3.57153 8.00049H6.95249L7.33344 9.47668H3.95249L3.57153 8.00049Z" fill="#BFF009"/>
    <path d="M16.3816 8.00073H13.0006L12.6197 9.47692H16.0006L16.3816 8.00073Z" fill="#BFF009"/>
    <path fill-rule="evenodd" clip-rule="evenodd" d="M17.5238 10C17.5238 14.1553 14.1553 17.5238 10 17.5238C5.84471 17.5238 2.47619 14.1553 2.47619 10C2.47619 5.84471 5.84471 2.47619 10 2.47619C11.2144 2.47619 12.3615 2.76388 13.377 3.27483L13.7492 1.81568C12.6078 1.29197 11.338 1 10 1C5.02944 1 1 5.02944 1 10C1 14.9706 5.02944 19 10 19C14.9706 19 19 14.9706 19 10C19 6.91432 17.4471 4.19134 15.0803 2.56989L14.6865 4.11372C16.4157 5.49224 17.5238 7.61671 17.5238 10Z" fill="#BFF009"/>
</svg>
