<svg width="20" height="20" viewBox="0 0 20 20" fill="none" xmlns="http://www.w3.org/2000/svg">
<path d="M9.99974 20.0005C15.5227 20.0005 20 15.5232 20 10.0002C20 4.47725 15.5227 0 9.99974 0C4.47677 0 -0.000488281 4.47725 -0.000488281 10.0002C-0.000488281 15.5232 4.47677 20.0005 9.99974 20.0005Z" fill="#137EFC"/>
<path d="M10.0549 7.35742H11.8304L13.5755 12.2893H13.5957L15.3711 7.35742H17.0372L14.1247 14.8835H12.8782L10.0549 7.35742Z" fill="white"/>
<path d="M6.76391 5.11719C4.69219 5.11719 3.01294 6.86415 3.01294 9.0194C3.01294 11.1747 4.69219 12.9216 6.76391 12.9216C8.83563 12.9216 10.5149 11.1747 10.5149 9.0194C10.5149 6.86415 8.8364 5.11719 6.76391 5.11719ZM6.76391 11.3578C5.52289 11.3578 4.51612 10.3113 4.51612 9.0194C4.51612 7.72754 5.52212 6.68098 6.76391 6.68098C8.0057 6.68098 9.01169 7.72754 9.01169 9.0194C9.01169 10.3113 8.0057 11.3578 6.76391 11.3578Z" fill="white"/>
<rect x="1.79785" y="8.73047" width="1.70429" height="1.31435" fill="white"/>
<rect x="15.7139" y="8.73047" width="2.02265" height="1.31435" fill="white"/>
</svg>
