<svg width="22" height="22" viewBox="0 0 22 22" fill="none" xmlns="http://www.w3.org/2000/svg">
<rect x="0.5" y="0.5" width="21" height="21" rx="10.5" stroke="white"/>
<path d="M10.9997 21.0005C16.5227 21.0005 21 16.5232 21 11.0002C21 5.47725 16.5227 1 10.9997 1C5.47677 1 0.999512 5.47725 0.999512 11.0002C0.999512 16.5232 5.47677 21.0005 10.9997 21.0005Z" fill="#137EFC"/>
<path d="M11.0547 8.35736H12.8301L14.5753 13.2892H14.5955L16.3709 8.35736H18.0369L15.1244 15.8834H13.878L11.0547 8.35736Z" fill="white"/>
<path d="M7.76366 6.11719C5.69194 6.11719 4.0127 7.86415 4.0127 10.0194C4.0127 12.1747 5.69194 13.9216 7.76366 13.9216C9.83538 13.9216 11.5146 12.1747 11.5146 10.0194C11.5146 7.86415 9.83616 6.11719 7.76366 6.11719ZM7.76366 12.3578C6.52265 12.3578 5.51587 11.3113 5.51587 10.0194C5.51587 8.72754 6.52187 7.68098 7.76366 7.68098C9.00545 7.68098 10.0115 8.72754 10.0115 10.0194C10.0115 11.3113 9.00545 12.3578 7.76366 12.3578Z" fill="white"/>
<rect x="2.79785" y="9.73047" width="1.70429" height="1.31435" fill="white"/>
<rect x="16.7139" y="9.73047" width="2.02265" height="1.31435" fill="white"/>
</svg>
