<svg width="20" height="20" viewBox="0 0 20 20" fill="none" xmlns="http://www.w3.org/2000/svg">
<path d="M9.99974 20.0005C15.5227 20.0005 20 15.5232 20 10.0002C20 4.47725 15.5227 0 9.99974 0C4.47677 0 -0.000488281 4.47725 -0.000488281 10.0002C-0.000488281 15.5232 4.47677 20.0005 9.99974 20.0005Z" fill="black"/>
<circle cx="10" cy="10" r="8.3" fill="black" stroke="white" stroke-width="0.6"/>
<path fill-rule="evenodd" clip-rule="evenodd" d="M10.0003 11.6976C10.8325 11.6976 11.5072 11.023 11.5072 10.1907C11.5072 9.35852 10.8325 8.68387 10.0003 8.68387C9.16809 8.68387 8.49344 9.35852 8.49344 10.1907C8.49344 11.023 9.16809 11.6976 10.0003 11.6976ZM10.0003 12.8278C11.4567 12.8278 12.6373 11.6471 12.6373 10.1907C12.6373 8.73435 11.4567 7.55371 10.0003 7.55371C8.54392 7.55371 7.36328 8.73435 7.36328 10.1907C7.36328 11.6471 8.54392 12.8278 10.0003 12.8278Z" fill="white"/>
<path d="M3 8.41578V7.5H7.36297V8.41578H5.73173V12.8282H4.63644V8.41578H3Z" fill="white"/>
<path d="M12.6372 8.41578V7.5H17.0002V8.41578H15.3689V12.8282H14.2736V8.41578H12.6372Z" fill="white"/>
<rect x="4" y="11.5996" width="2" height="0.6" fill="black"/>
<rect x="4" y="10.0996" width="2" height="0.6" fill="black"/>
<rect x="14" y="11.5996" width="2" height="0.6" fill="black"/>
<rect x="14" y="10.0996" width="2" height="0.6" fill="black"/>
</svg>
